<svg width="21" height="22" viewBox="0 0 21 22" fill="none" xmlns="http://www.w3.org/2000/svg">
<path d="M20.3764 11.0043C20.3764 16.854 15.815 21.596 10.1882 21.596C4.56139 21.596 0 16.854 0 11.0043C0 5.15461 4.56139 0.412537 10.1882 0.412537C15.815 0.412537 20.3764 5.15461 20.3764 11.0043ZM9.00972 16.6125L16.5687 8.75414C16.8254 8.48729 16.8254 8.05461 16.5687 7.78777L15.6391 6.8214C15.3825 6.55451 14.9663 6.55451 14.7095 6.8214L8.54492 13.2302L5.6668 10.2381C5.41013 9.97121 4.99393 9.97121 4.73721 10.2381L3.80767 11.2044C3.55099 11.4713 3.55099 11.9039 3.80767 12.1708L8.08013 16.6125C8.33684 16.8794 8.753 16.8794 9.00972 16.6125Z" fill="white"/>
</svg>
