<svg width="1186" height="181" viewBox="0 0 1186 181" fill="none" xmlns="http://www.w3.org/2000/svg">
<g clip-path="url(#clip0_189_875)">
<rect width="1186" height="181" rx="20" fill="#0043A7"/>
<path d="M1069 45C1069 45 1071.21 65.5997 1079.8 74.1964C1088.4 82.793 1109 85 1109 85C1109 85 1088.4 87.207 1079.8 95.8036C1071.21 104.4 1069 125 1069 125C1069 125 1066.79 104.4 1058.2 95.8036C1049.6 87.207 1029 85 1029 85C1029 85 1049.6 82.793 1058.2 74.1964C1066.79 65.5997 1069 45 1069 45Z" fill="white" fill-opacity="0.25"/>
<path d="M1139 93C1139 93 1141.21 113.6 1149.8 122.196C1158.4 130.793 1179 133 1179 133C1179 133 1158.4 135.207 1149.8 143.804C1141.21 152.4 1139 173 1139 173C1139 173 1136.79 152.4 1128.2 143.804C1119.6 135.207 1099 133 1099 133C1099 133 1119.6 130.793 1128.2 122.196C1136.79 113.6 1139 93 1139 93Z" fill="white" fill-opacity="0.1"/>
<path d="M998 122C998 122 1000.21 152.385 1008.8 165.065C1017.4 177.745 1038 181 1038 181C1038 181 1017.4 184.255 1008.8 196.935C1000.21 209.615 998 240 998 240C998 240 995.793 209.615 987.196 196.935C978.6 184.255 958 181 958 181C958 181 978.6 177.745 987.196 165.065C995.793 152.385 998 122 998 122Z" fill="white" fill-opacity="0.1"/>
<path d="M1129.5 -59C1129.5 -59 1131.18 -28.6154 1137.74 -15.9354C1144.29 -3.25534 1160 -3.8147e-06 1160 -3.8147e-06C1160 -3.8147e-06 1144.29 3.25534 1137.74 15.9354C1131.18 28.6154 1129.5 59 1129.5 59C1129.5 59 1127.82 28.6154 1121.26 15.9354C1114.71 3.25534 1099 -3.8147e-06 1099 -3.8147e-06C1099 -3.8147e-06 1114.71 -3.25534 1121.26 -15.9354C1127.82 -28.6154 1129.5 -59 1129.5 -59Z" fill="white" fill-opacity="0.1"/>
<path d="M998.5 20C998.5 20 1000.18 35.4498 1006.74 41.8973C1013.29 48.3447 1029 50 1029 50C1029 50 1013.29 51.6553 1006.74 58.1027C1000.18 64.5502 998.5 80 998.5 80C998.5 80 996.817 64.5502 990.262 58.1027C983.707 51.6553 968 50 968 50C968 50 983.707 48.3447 990.262 41.8973C996.817 35.4498 998.5 20 998.5 20Z" fill="white" fill-opacity="0.1"/>
</g>
<defs>
<clipPath id="clip0_189_875">
<rect width="1186" height="181" rx="20" fill="white"/>
</clipPath>
</defs>
</svg>
