<svg width="1233" height="181" viewBox="0 0 1233 181" fill="none" xmlns="http://www.w3.org/2000/svg">
<g clip-path="url(#clip0_189_875)">
<rect width="1233" height="181" fill="#0043A7"/>
<path d="M1116 45C1116 45 1118.21 65.5997 1126.8 74.1964C1135.4 82.793 1156 85 1156 85C1156 85 1135.4 87.207 1126.8 95.8036C1118.21 104.4 1116 125 1116 125C1116 125 1113.79 104.4 1105.2 95.8036C1096.6 87.207 1076 85 1076 85C1076 85 1096.6 82.793 1105.2 74.1964C1113.79 65.5997 1116 45 1116 45Z" fill="white" fill-opacity="0.25"/>
<path d="M1186 93C1186 93 1188.21 113.6 1196.8 122.196C1205.4 130.793 1226 133 1226 133C1226 133 1205.4 135.207 1196.8 143.804C1188.21 152.4 1186 173 1186 173C1186 173 1183.79 152.4 1175.2 143.804C1166.6 135.207 1146 133 1146 133C1146 133 1166.6 130.793 1175.2 122.196C1183.79 113.6 1186 93 1186 93Z" fill="white" fill-opacity="0.1"/>
<path d="M1045 122C1045 122 1047.21 152.385 1055.8 165.065C1064.4 177.745 1085 181 1085 181C1085 181 1064.4 184.255 1055.8 196.935C1047.21 209.615 1045 240 1045 240C1045 240 1042.79 209.615 1034.2 196.935C1025.6 184.255 1005 181 1005 181C1005 181 1025.6 177.745 1034.2 165.065C1042.79 152.385 1045 122 1045 122Z" fill="white" fill-opacity="0.1"/>
<path d="M1176.5 -59C1176.5 -59 1178.18 -28.6154 1184.74 -15.9354C1191.29 -3.25534 1207 -3.8147e-06 1207 -3.8147e-06C1207 -3.8147e-06 1191.29 3.25534 1184.74 15.9354C1178.18 28.6154 1176.5 59 1176.5 59C1176.5 59 1174.82 28.6154 1168.26 15.9354C1161.71 3.25534 1146 -3.8147e-06 1146 -3.8147e-06C1146 -3.8147e-06 1161.71 -3.25534 1168.26 -15.9354C1174.82 -28.6154 1176.5 -59 1176.5 -59Z" fill="white" fill-opacity="0.1"/>
<path d="M1045.5 20C1045.5 20 1047.18 35.4498 1053.74 41.8973C1060.29 48.3447 1076 50 1076 50C1076 50 1060.29 51.6553 1053.74 58.1027C1047.18 64.5502 1045.5 80 1045.5 80C1045.5 80 1043.82 64.5502 1037.26 58.1027C1030.71 51.6553 1015 50 1015 50C1015 50 1030.71 48.3447 1037.26 41.8973C1043.82 35.4498 1045.5 20 1045.5 20Z" fill="white" fill-opacity="0.1"/>
</g>
<defs>
<clipPath id="clip0_189_875">
<rect width="1233" height="181" fill="white"/>
</clipPath>
</defs>
</svg>
