<svg width="44" height="44" viewBox="0 0 44 44" fill="none" xmlns="http://www.w3.org/2000/svg">
<path d="M40.6332 34.0221L33.8763 27.2554L28.6789 25.1051C30.4095 22.6406 31.3366 19.7005 31.3333 16.6876C31.3333 8.58883 24.7539 2 16.6666 2C8.5794 2 2 8.58883 2 16.6876C2 24.7865 8.5794 31.3753 16.6666 31.3753C19.7013 31.3787 22.6615 30.4342 25.1349 28.6733L27.2765 33.8641L34.0333 40.6311C34.4666 41.0651 34.981 41.4093 35.5472 41.6442C36.1134 41.8791 36.7203 42 37.3331 42C37.9459 42 38.5528 41.8792 39.119 41.6443C39.6852 41.4095 40.1997 41.0652 40.633 40.6313C41.0664 40.1973 41.4102 39.6822 41.6447 39.1152C41.8792 38.5482 42 37.9404 42 37.3267C42 36.713 41.8793 36.1053 41.6448 35.5383C41.4103 34.9712 41.0666 34.456 40.6332 34.0221ZM4.66666 16.6876C4.66666 10.0615 10.05 4.67048 16.6666 4.67048C23.2833 4.67048 28.6666 10.0615 28.6666 16.6876C28.6666 23.3138 23.2833 28.7048 16.6666 28.7048C10.05 28.7048 4.66666 23.3138 4.66666 16.6876ZM38.7475 38.7428C38.3721 39.1179 37.8635 39.3285 37.3333 39.3285C36.803 39.3285 36.2944 39.1179 35.919 38.7428L29.538 32.3527L27.5469 27.5262L32.3666 29.5202L38.7477 35.9103C39.1221 36.2863 39.3324 36.7956 39.3324 37.3266C39.3324 37.8576 39.122 38.3669 38.7475 38.7428Z" fill="#008894"/>
</svg>
