<svg width="30" height="30" viewBox="0 0 30 30" fill="none" xmlns="http://www.w3.org/2000/svg">
<g clip-path="url(#clip0_102_29)">
<rect width="30" height="30" fill="#F3FEFF"/>
<path d="M16.5844 3.22222L15.4781 0.4269C15.2953 -0.0584796 14.7234 -0.0760235 14.5219 0.4269L13.4156 3.22222L10.9641 3.66082C10.5281 3.74269 10.3406 4.4152 10.6641 4.81871L12.4453 6.98246L12.0234 10.0292C11.9578 10.5731 12.4078 10.9942 12.8109 10.7427L15.0094 9.2924L17.1937 10.7193C17.5969 10.9708 18.0516 10.5497 17.9813 10.0058L17.5594 6.95906L19.3406 4.81871C19.6594 4.42105 19.4766 3.74854 19.0406 3.66082L16.5891 3.22222H16.5844ZM12 15.0292C11.1703 15.0292 10.5 15.8655 10.5 16.9006V28.1287C10.5 29.1637 11.1703 30 12 30H18C18.8297 30 19.5 29.1637 19.5 28.1287V16.9006C19.5 15.8655 18.8297 15.0292 18 15.0292H12ZM1.5 18.7719C0.670312 18.7719 0 19.6082 0 20.6433V28.1287C0 29.1637 0.670312 30 1.5 30H7.5C8.32969 30 9 29.1637 9 28.1287V20.6433C9 19.6082 8.32969 18.7719 7.5 18.7719H1.5ZM21 24.386V28.1287C21 29.1637 21.6703 30 22.5 30H28.5C29.3297 30 30 29.1637 30 28.1287V24.386C30 23.3509 29.3297 22.5146 28.5 22.5146H22.5C21.6703 22.5146 21 23.3509 21 24.386Z" fill="#FFAC07"/>
</g>
<defs>
<clipPath id="clip0_102_29">
<rect width="30" height="30" fill="white"/>
</clipPath>
</defs>
</svg>
